<?xml version="1.0" encoding="UTF-8"?>
<svg xmlns="http://www.w3.org/2000/svg" version="1.1" xmlns:inkscape="http://www.inkscape.org/namespaces/inkscape" xmlns:sodipodi="http://sodipodi.sourceforge.net/DTD/sodipodi-0.dtd" xmlns:svg="http://www.w3.org/2000/svg" viewBox="0 0 64 64">
  <!-- Generator: Adobe Illustrator 30.4.0, SVG Export Plug-In . SVG Version: 2.1.4 Build 226)  -->
  <defs>
    <style>
      .st0 {
        fill: #992345;
      }

      .st1 {
        stroke-width: 10px;
      }

      .st1, .st2 {
        fill: #b43333;
        stroke: #e00000;
        stroke-miterlimit: 15.1;
      }

      .st2 {
        stroke-linecap: round;
        stroke-width: 7px;
      }

      .st3 {
        display: none;
      }

      .st4 {
        fill: #db899e;
      }
    </style>
  </defs>
  <g id="svg5" sodipodi:docname="icons.svg">
    <sodipodi:namedview id="namedview7" bordercolor="#ffffff" borderopacity="0.21568627" inkscape:current-layer="layer2" inkscape:cx="66.389468" inkscape:cy="42.524615" inkscape:deskcolor="#505050" inkscape:document-units="px" inkscape:pagecheckerboard="1" inkscape:pageopacity="0" inkscape:showpageshadow="0" inkscape:window-height="1334" inkscape:window-maximized="1" inkscape:window-width="3440" inkscape:window-x="-11" inkscape:window-y="-11" inkscape:zoom="10.182338" pagecolor="#505050" showborder="true" showgrid="false" showguides="true">
      <inkscape:grid id="grid739" originx="0" originy="0" type="xygrid"/>
    </sodipodi:namedview>
    <g id="layer1" inkscape:groupmode="layer" inkscape:label="bg">
      <path class="st0" d="M64,10v34c0,10.1-9.9,20-20,20H10c-5.2,0-10-4.6-10-10V20C0,9.9,9.9,0,20,0h34c5.4,0,10,5,10,10Z"/>
    </g>
    <g id="layer3" class="st3" inkscape:groupmode="layer" inkscape:label="cross">
      <path id="path7482" class="st2" d="M53.3,9.5L10.5,55.5"/>
      <path id="path7482-2" class="st2" d="M10.5,9.5l42.8,46"/>
    </g>
    <g id="layer4" class="st3" inkscape:groupmode="layer" inkscape:label="red line">
      <path id="path9184-3" class="st1" d="M69.3,37.6L-6,27.4" sodipodi:nodetypes="cc"/>
    </g>
    <g>
      <path class="st4" d="M32.9,30.4c18.8-6.1,16.8-13.7,13.8-21l-3.4,1.7.2-3.8c-5.4,0-10.8.6-13.1,7.3.6,1.3,1.1,2.7,1.5,4.4.7,3.1,1,6.8,1,11.4Z"/>
      <path class="st4" d="M57.3,34.9c-1.7-5.2-3.9-10.1-11-10.2-.7.7-1.6,1.4-2.5,2-2.6,1.8-6.1,3.4-10.6,4.8l-1.2.4c11.6,16,18.2,11.7,24.3,6.6l-2.7-2.7,3.7-.9Z"/>
      <path class="st4" d="M39.6,41.7c-2.7-1.9-5.5-4.9-8.5-9l-.7-1c-11.6,16-5.5,21,1.2,25.1l1.8-3.4,2,3.2c4.4-3.2,8.4-6.8,6.3-13.6-.7-.4-1.4-.8-2-1.3Z"/>
      <path class="st4" d="M15.9,26.6c.8-.1,1.7-.2,2.6-.2,3.3,0,7.2.8,12,2.3l1.2.4c0-19.8-7.8-20.2-15.7-19.6l.5,3.8-3.5-1.4c-1.6,5.2-2.8,10.5,2.9,14.7Z"/>
      <path class="st4" d="M30.2,29.9c-18.8-6.1-21.6,1.2-23.5,8.9l3.8.6-2.4,2.9c4.4,3.2,9.1,5.9,14.9,1.8.2-1,.5-2,.8-3.1,1.1-3,2.9-6.3,5.7-10.1l.7-1Z"/>
    </g>
  </g>
</svg>